<?xml version="1.0" standalone="no"?><!DOCTYPE svg PUBLIC "-//W3C//DTD SVG 1.1//EN" "http://www.w3.org/Graphics/SVG/1.1/DTD/svg11.dtd"><svg t="1726238505208" class="icon" viewBox="0 0 1024 1024" version="1.1" xmlns="http://www.w3.org/2000/svg" p-id="1523" xmlns:xlink="http://www.w3.org/1999/xlink" width="200" height="200"><path d="M426.666667 512a64 64 0 1 1-64-64 64 64 0 0 1 64 64z m234.666666-64a64 64 0 1 0 64 64 64 64 0 0 0-64-64z m234.666667 64a381.866667 381.866667 0 0 1-85.333333 241.066667V896H213.333333v-142.933333A384 384 0 1 1 896 512z m-85.333333 0a298.666667 298.666667 0 1 0-530.986667 187.52l18.986667 23.466667V810.666667h85.333333v-85.333334h85.333333v85.333334h85.333334v-85.333334h85.333333v85.333334h85.333333v-87.68l18.986667-23.466667A296.106667 296.106667 0 0 0 810.666667 512z" p-id="1524" fill="#0a66c2"></path></svg>
